<svg xmlns="http://www.w3.org/2000/svg" viewBox="0 0 2560 740" role="img" aria-labelledby="title desc">
  <title id="title">India Property Network header</title>
  <desc id="desc">India Property Network logo with all India property services headline.</desc>
  <defs>
    <linearGradient id="blue" x1="0" y1="0" x2="0" y2="1">
      <stop offset="0" stop-color="#0a4391"/>
      <stop offset="1" stop-color="#052b65"/>
    </linearGradient>
    <linearGradient id="green" x1="0" y1="0" x2="1" y2="1">
      <stop offset="0" stop-color="#3c882f"/>
      <stop offset="1" stop-color="#1e6520"/>
    </linearGradient>
    <filter id="textGlow" x="-15%" y="-15%" width="130%" height="130%">
      <feDropShadow dx="0" dy="0" stdDeviation="3" flood-color="#ffffff" flood-opacity="0.18"/>
    </filter>
  </defs>

  <rect width="2560" height="740" fill="#000"/>

  <g transform="translate(70 70)">
    <rect width="520" height="600" fill="#fff" stroke="#0a1f5c" stroke-width="4"/>
    <g transform="translate(260 215) scale(0.58)">
      <g fill="none" stroke="#082c68" stroke-width="6" stroke-linecap="round" stroke-linejoin="round" stroke-dasharray="28 18">
        <path d="M0-198 L155-119 L197 32 L103 155 L0 116 L-103 155 L-197 32 L-155-119 Z"/>
        <path d="M0-198 V-84"/>
        <path d="M-155-119 L-72-38"/>
        <path d="M155-119 L72-38"/>
      </g>
      <g fill="url(#green)" stroke="#fff" stroke-width="4">
        <circle cx="0" cy="-198" r="21"/>
        <circle cx="197" cy="32" r="21"/>
        <circle cx="-197" cy="32" r="21"/>
        <circle cx="-52" cy="0" r="14"/>
      </g>
      <g fill="#082c68" stroke="#fff" stroke-width="4">
        <circle cx="155" cy="-119" r="21"/>
        <circle cx="-155" cy="-119" r="21"/>
        <circle cx="103" cy="155" r="18"/>
        <circle cx="-103" cy="155" r="18"/>
      </g>
      <g fill="none" stroke="url(#green)" stroke-width="5" stroke-linecap="round">
        <path d="M-52 0 L-122 19"/>
        <path d="M96 25 L179 40"/>
      </g>
      <path d="M0-84c-76 0-138 60-138 136 0 96 138 220 138 220S138 148 138 52C138-24 76-84 0-84Z" fill="url(#blue)"/>
      <circle cx="0" cy="39" r="88" fill="#fff"/>
      <path d="M-58 30c22-8 47-12 75-12 28 0 53 4 75 12-28 9-50 23-68 43-29-7-57-8-82-2Z" fill="url(#green)"/>
      <path d="M-73 54c21 1 44 6 69 16-13 18-24 38-34 60-23-21-39-46-35-76Z" fill="url(#green)"/>
      <path d="M-16 75c24-24 55-39 94-45 6 12 10 25 10 39-34 4-64 18-91 43-13 12-25 26-35 42-18-4-35-12-49-23 16-24 39-45 71-56Z" fill="url(#green)"/>
      <path d="M24 123c19-21 41-34 66-39-11 43-45 78-88 89 6-18 13-34 22-50Z" fill="url(#green)"/>
      <path d="M-12-42c10 10 3 15 7 24 9-3 16 0 26 8 7 5 19 9 21 18-9 4-13 1-19-3-8 6-13 9-23 8-8 6-12 14-19 20-7-14-7-31-13-45-7-2-11-6-12-13 11-3 19-9 32-17Z" fill="url(#blue)"/>
    </g>
    <g text-anchor="middle" font-family="Arial, Helvetica, sans-serif">
      <text x="260" y="370" fill="url(#blue)" font-size="116" font-weight="900" letter-spacing="2">INDIA</text>
      <text x="260" y="430" fill="url(#green)" font-size="36" font-weight="800" letter-spacing="9">PROPERTY NETWORK</text>
      <line x1="100" y1="470" x2="230" y2="470" stroke="url(#green)" stroke-width="4"/>
      <line x1="290" y1="470" x2="420" y2="470" stroke="url(#green)" stroke-width="4"/>
      <text x="260" y="485" fill="url(#blue)" font-size="42" font-weight="800" letter-spacing="18">LTD</text>
      <text x="260" y="540" fill="#082c68" font-size="25" font-weight="800" letter-spacing="9">BUY &#8226; SELL &#8226; INVEST &#8226; DEVELOP</text>
    </g>
  </g>

  <g font-family="Arial, Helvetica, sans-serif" filter="url(#textGlow)">
    <text x="660" y="235" fill="#f5dd51" font-size="82" font-weight="900">We do Everything Related to All India Property</text>
    <text x="660" y="365" fill="#ffffff" font-size="70" font-weight="500">Sale, Purchase, Finance, Joint Venture, Redevelopment</text>
    <text x="660" y="475" fill="#ffffff" font-size="70" font-weight="500">Development, Rental, for Flat, Bungalow, Shop, Office,</text>
    <text x="660" y="585" fill="#ffffff" font-size="70" font-weight="500">N.A. Land, Agriculture Land.</text>
  </g>
</svg>